<?xml version="1.0" standalone="no"?>
<!DOCTYPE svg PUBLIC "-//W3C//DTD SVG 20010904//EN"
 "http://www.w3.org/TR/2001/REC-SVG-20010904/DTD/svg10.dtd">
<svg version="1.0" xmlns="http://www.w3.org/2000/svg"
 width="48.000000pt" height="48.000000pt" viewBox="0 0 48.000000 48.000000"
 preserveAspectRatio="xMidYMid meet">

<g transform="translate(0.000000,48.000000) scale(0.100000,-0.100000)"
fill="#000000" stroke="none">
<path d="M179 431 c-28 -29 -29 -32 -29 -136 0 -104 1 -107 29 -136 40 -39 82
-39 122 0 28 29 29 32 29 136 0 104 -1 107 -29 136 -20 20 -39 29 -61 29 -22
0 -41 -9 -61 -29z m101 -21 c17 -17 20 -33 20 -115 0 -82 -3 -98 -20 -115 -25
-25 -55 -25 -80 0 -17 17 -20 33 -20 115 0 82 3 98 20 115 11 11 29 20 40 20
11 0 29 -9 40 -20z"/>
<path d="M90 230 c0 -62 33 -117 84 -142 33 -16 46 -28 50 -50 7 -36 25 -36
32 0 4 22 17 34 50 50 51 25 84 80 84 142 0 62 -26 53 -32 -11 -4 -40 -12 -58
-37 -82 -27 -27 -39 -32 -81 -32 -42 0 -54 5 -81 32 -25 24 -33 42 -37 82 -6
64 -32 73 -32 11z"/>
</g>
</svg>
