<?xml version="1.0" standalone="no"?>
<!DOCTYPE svg PUBLIC "-//W3C//DTD SVG 20010904//EN"
 "http://www.w3.org/TR/2001/REC-SVG-20010904/DTD/svg10.dtd">
<svg version="1.0" xmlns="http://www.w3.org/2000/svg"
 width="48.000000pt" height="48.000000pt" viewBox="0 0 48.000000 48.000000"
 preserveAspectRatio="xMidYMid meet">

<g transform="translate(0.000000,48.000000) scale(0.100000,-0.100000)"
fill="#000000" stroke="none">
<path d="M179 431 c-28 -28 -29 -33 -29 -121 0 -81 2 -91 15 -80 11 9 15 33
15 86 0 61 4 78 20 94 32 32 73 22 97 -23 8 -16 11 -17 22 -3 11 13 8 20 -17
46 -41 40 -83 40 -123 1z"/>
<path d="M275 300 c-149 -150 -153 -151 -154 -67 -1 26 -5 37 -16 37 -19 0
-21 -67 -3 -105 10 -23 8 -29 -25 -63 -20 -21 -37 -43 -37 -50 0 -22 26 -12
59 22 l33 35 43 -21 c32 -16 45 -28 49 -50 7 -36 25 -36 32 0 4 22 17 34 50
50 51 25 84 80 84 142 0 62 -26 53 -32 -11 -4 -40 -12 -58 -37 -82 -27 -27
-39 -32 -80 -32 -26 0 -55 6 -65 14 -23 19 -5 37 22 22 36 -19 72 -13 103 18
25 26 29 37 29 88 0 58 1 59 55 113 54 53 68 80 42 80 -7 0 -75 -63 -152 -140z
m21 -96 c-8 -30 -41 -48 -73 -39 -26 6 -26 6 23 56 44 45 49 48 52 28 2 -11 1
-32 -2 -45z"/>
</g>
</svg>
