<?xml version="1.0" standalone="no"?>
<!DOCTYPE svg PUBLIC "-//W3C//DTD SVG 20010904//EN"
 "http://www.w3.org/TR/2001/REC-SVG-20010904/DTD/svg10.dtd">
<svg version="1.0" xmlns="http://www.w3.org/2000/svg"
 width="500.000000pt" height="500.000000pt" viewBox="0 0 500.000000 500.000000"
 preserveAspectRatio="xMidYMid meet">

<g transform="translate(0.000000,500.000000) scale(0.100000,-0.100000)"
fill="#000000" stroke="none">
<path d="M555 4568 c-105 -38 -160 -158 -120 -265 15 -41 83 -114 450 -483
l432 -435 -25 -59 c-13 -33 -28 -87 -33 -120 -6 -35 -8 -345 -7 -736 4 -763 0
-726 83 -839 58 -79 142 -134 235 -155 56 -13 140 -16 457 -16 l388 0 505
-505 c347 -347 517 -509 542 -520 80 -33 176 -9 235 58 46 52 53 91 53 287 l0
174 248 -246 c151 -150 263 -254 289 -267 59 -29 119 -27 184 7 43 22 59 38
81 81 38 72 37 129 -1 196 -20 34 -630 650 -1913 1932 -1480 1479 -1893 1886
-1928 1902 -49 22 -108 26 -155 9z"/>
<path d="M3460 4564 c-22 -9 -221 -201 -540 -519 l-505 -505 -53 0 c-28 0 -52
-3 -52 -8 0 -4 324 -331 720 -727 l720 -720 0 1156 c0 1266 3 1208 -58 1273
-57 61 -157 82 -232 50z"/>
</g>
</svg>
