<?xml version="1.0" standalone="no"?>
<!DOCTYPE svg PUBLIC "-//W3C//DTD SVG 20010904//EN"
 "http://www.w3.org/TR/2001/REC-SVG-20010904/DTD/svg10.dtd">
<svg version="1.0" xmlns="http://www.w3.org/2000/svg"
 width="360.000000pt" height="360.000000pt" viewBox="0 0 360.000000 360.000000"
 preserveAspectRatio="xMidYMid meet">

<g transform="translate(0.000000,360.000000) scale(0.100000,-0.100000)"
fill="#000000" stroke="none">
<path d="M2400 3198 c-19 -13 -43 -40 -53 -61 -36 -72 5 -141 112 -189 102
-46 254 -152 345 -241 177 -174 291 -374 353 -624 25 -98 27 -125 27 -293 0
-153 -4 -201 -21 -277 -90 -385 -346 -709 -693 -877 -87 -43 -115 -67 -130
-112 -24 -71 33 -152 112 -161 37 -4 57 2 143 46 253 127 434 288 596 529 113
169 185 340 231 549 30 136 32 431 4 578 -88 475 -410 902 -832 1106 -109 53
-148 58 -194 27z"/>
<path d="M1455 2991 c-16 -10 -181 -170 -365 -355 l-335 -336 -278 0 c-229 0
-283 -3 -307 -15 -60 -31 -60 -33 -60 -495 0 -458 0 -457 57 -496 26 -17 52
-19 313 -22 l285 -3 340 -338 c187 -187 350 -344 362 -350 36 -18 97 -13 127
10 59 47 56 -23 56 1201 0 1096 -1 1124 -20 1155 -37 61 -117 81 -175 44z"/>
<path d="M2210 2733 c-44 -23 -80 -76 -80 -118 0 -52 37 -94 128 -144 107 -58
183 -120 249 -201 170 -211 215 -495 119 -750 -65 -175 -187 -313 -361 -409
-114 -64 -138 -93 -132 -160 6 -58 56 -110 113 -118 32 -4 55 3 132 42 307
154 513 457 552 814 44 401 -178 818 -536 1008 -99 52 -138 60 -184 36z"/>
<path d="M2000 2257 c-43 -22 -72 -76 -67 -125 5 -50 22 -71 97 -122 101 -69
130 -119 130 -220 0 -102 -29 -151 -133 -222 -76 -52 -100 -89 -94 -148 7 -64
58 -110 122 -110 60 0 133 37 202 103 219 207 217 553 -6 760 -88 82 -188 116
-251 84z"/>
</g>
</svg>
